<mxfile host="Electron" modified="2024-03-20T14:34:10.283Z" agent="Mozilla/5.0 (Windows NT 10.0; Win64; x64) AppleWebKit/537.36 (KHTML, like Gecko) draw.io/24.0.4 Chrome/120.0.6099.109 Electron/28.1.0 Safari/537.36" etag="8LuMwpNELrq_CJkD4NCb" version="24.0.4" type="device">
  <diagram name="Pagina-1" id="Df9wPKqEowFsM80lgpAr">
    <mxGraphModel dx="1050" dy="629" grid="1" gridSize="10" guides="1" tooltips="1" connect="1" arrows="1" fold="1" page="1" pageScale="1" pageWidth="827" pageHeight="1169" math="0" shadow="0">
      <root>
        <mxCell id="0" />
        <mxCell id="1" parent="0" />
        <mxCell id="GS4JMu99pfb2QcCZ1yt9-5" style="edgeStyle=orthogonalEdgeStyle;rounded=0;orthogonalLoop=1;jettySize=auto;html=1;endArrow=doubleBlock;endFill=1;" edge="1" parent="1" source="GS4JMu99pfb2QcCZ1yt9-1" target="GS4JMu99pfb2QcCZ1yt9-4">
          <mxGeometry relative="1" as="geometry" />
        </mxCell>
        <mxCell id="GS4JMu99pfb2QcCZ1yt9-25" style="edgeStyle=orthogonalEdgeStyle;rounded=0;orthogonalLoop=1;jettySize=auto;html=1;entryX=0;entryY=0.5;entryDx=0;entryDy=0;" edge="1" parent="1" source="GS4JMu99pfb2QcCZ1yt9-1" target="GS4JMu99pfb2QcCZ1yt9-10">
          <mxGeometry relative="1" as="geometry" />
        </mxCell>
        <mxCell id="GS4JMu99pfb2QcCZ1yt9-26" style="edgeStyle=orthogonalEdgeStyle;rounded=0;orthogonalLoop=1;jettySize=auto;html=1;entryX=0;entryY=0.5;entryDx=0;entryDy=0;" edge="1" parent="1" source="GS4JMu99pfb2QcCZ1yt9-1" target="GS4JMu99pfb2QcCZ1yt9-11">
          <mxGeometry relative="1" as="geometry" />
        </mxCell>
        <mxCell id="GS4JMu99pfb2QcCZ1yt9-27" style="edgeStyle=orthogonalEdgeStyle;rounded=0;orthogonalLoop=1;jettySize=auto;html=1;entryX=0;entryY=0.5;entryDx=0;entryDy=0;" edge="1" parent="1" source="GS4JMu99pfb2QcCZ1yt9-1" target="GS4JMu99pfb2QcCZ1yt9-12">
          <mxGeometry relative="1" as="geometry" />
        </mxCell>
        <mxCell id="GS4JMu99pfb2QcCZ1yt9-1" value="Utente" style="rounded=0;whiteSpace=wrap;html=1;" vertex="1" parent="1">
          <mxGeometry x="100" y="90" width="120" height="60" as="geometry" />
        </mxCell>
        <mxCell id="GS4JMu99pfb2QcCZ1yt9-8" style="edgeStyle=orthogonalEdgeStyle;rounded=0;orthogonalLoop=1;jettySize=auto;html=1;entryX=1;entryY=0.5;entryDx=0;entryDy=0;endArrow=doubleBlock;endFill=1;" edge="1" parent="1" source="GS4JMu99pfb2QcCZ1yt9-2" target="GS4JMu99pfb2QcCZ1yt9-4">
          <mxGeometry relative="1" as="geometry" />
        </mxCell>
        <mxCell id="GS4JMu99pfb2QcCZ1yt9-22" style="edgeStyle=orthogonalEdgeStyle;rounded=0;orthogonalLoop=1;jettySize=auto;html=1;entryX=0;entryY=0.5;entryDx=0;entryDy=0;" edge="1" parent="1" source="GS4JMu99pfb2QcCZ1yt9-2" target="GS4JMu99pfb2QcCZ1yt9-16">
          <mxGeometry relative="1" as="geometry" />
        </mxCell>
        <mxCell id="GS4JMu99pfb2QcCZ1yt9-23" style="edgeStyle=orthogonalEdgeStyle;rounded=0;orthogonalLoop=1;jettySize=auto;html=1;entryX=0;entryY=0.5;entryDx=0;entryDy=0;" edge="1" parent="1" source="GS4JMu99pfb2QcCZ1yt9-2" target="GS4JMu99pfb2QcCZ1yt9-17">
          <mxGeometry relative="1" as="geometry" />
        </mxCell>
        <mxCell id="GS4JMu99pfb2QcCZ1yt9-24" style="edgeStyle=orthogonalEdgeStyle;rounded=0;orthogonalLoop=1;jettySize=auto;html=1;entryX=0;entryY=0.5;entryDx=0;entryDy=0;" edge="1" parent="1" source="GS4JMu99pfb2QcCZ1yt9-2" target="GS4JMu99pfb2QcCZ1yt9-18">
          <mxGeometry relative="1" as="geometry" />
        </mxCell>
        <mxCell id="GS4JMu99pfb2QcCZ1yt9-2" value="Libro" style="rounded=0;whiteSpace=wrap;html=1;" vertex="1" parent="1">
          <mxGeometry x="600" y="90" width="120" height="60" as="geometry" />
        </mxCell>
        <mxCell id="GS4JMu99pfb2QcCZ1yt9-35" style="edgeStyle=orthogonalEdgeStyle;rounded=0;orthogonalLoop=1;jettySize=auto;html=1;entryX=0;entryY=0.5;entryDx=0;entryDy=0;" edge="1" parent="1" source="GS4JMu99pfb2QcCZ1yt9-4" target="GS4JMu99pfb2QcCZ1yt9-29">
          <mxGeometry relative="1" as="geometry" />
        </mxCell>
        <mxCell id="GS4JMu99pfb2QcCZ1yt9-36" style="edgeStyle=orthogonalEdgeStyle;rounded=0;orthogonalLoop=1;jettySize=auto;html=1;entryX=0;entryY=0.5;entryDx=0;entryDy=0;" edge="1" parent="1" source="GS4JMu99pfb2QcCZ1yt9-4" target="GS4JMu99pfb2QcCZ1yt9-30">
          <mxGeometry relative="1" as="geometry" />
        </mxCell>
        <mxCell id="GS4JMu99pfb2QcCZ1yt9-4" value="Prestito" style="rhombus;whiteSpace=wrap;html=1;" vertex="1" parent="1">
          <mxGeometry x="373.5" y="80" width="80" height="80" as="geometry" />
        </mxCell>
        <mxCell id="GS4JMu99pfb2QcCZ1yt9-9" value="" style="endArrow=none;html=1;rounded=0;" edge="1" parent="1">
          <mxGeometry width="50" height="50" relative="1" as="geometry">
            <mxPoint x="240" y="150" as="sourcePoint" />
            <mxPoint x="240" y="90" as="targetPoint" />
          </mxGeometry>
        </mxCell>
        <mxCell id="GS4JMu99pfb2QcCZ1yt9-10" value="" style="ellipse;whiteSpace=wrap;html=1;aspect=fixed;" vertex="1" parent="1">
          <mxGeometry x="200" y="200" width="40" height="40" as="geometry" />
        </mxCell>
        <mxCell id="GS4JMu99pfb2QcCZ1yt9-11" value="" style="ellipse;whiteSpace=wrap;html=1;aspect=fixed;" vertex="1" parent="1">
          <mxGeometry x="200" y="250" width="40" height="40" as="geometry" />
        </mxCell>
        <mxCell id="GS4JMu99pfb2QcCZ1yt9-12" value="" style="ellipse;whiteSpace=wrap;html=1;aspect=fixed;" vertex="1" parent="1">
          <mxGeometry x="200" y="300" width="40" height="40" as="geometry" />
        </mxCell>
        <mxCell id="GS4JMu99pfb2QcCZ1yt9-13" value="Nome" style="text;html=1;align=center;verticalAlign=middle;whiteSpace=wrap;rounded=0;" vertex="1" parent="1">
          <mxGeometry x="230" y="205" width="60" height="30" as="geometry" />
        </mxCell>
        <mxCell id="GS4JMu99pfb2QcCZ1yt9-14" value="Cognome" style="text;html=1;align=center;verticalAlign=middle;whiteSpace=wrap;rounded=0;" vertex="1" parent="1">
          <mxGeometry x="240" y="255" width="60" height="30" as="geometry" />
        </mxCell>
        <mxCell id="GS4JMu99pfb2QcCZ1yt9-15" value="Email" style="text;html=1;align=center;verticalAlign=middle;whiteSpace=wrap;rounded=0;" vertex="1" parent="1">
          <mxGeometry x="230" y="305" width="60" height="30" as="geometry" />
        </mxCell>
        <mxCell id="GS4JMu99pfb2QcCZ1yt9-16" value="" style="ellipse;whiteSpace=wrap;html=1;aspect=fixed;" vertex="1" parent="1">
          <mxGeometry x="700" y="170" width="40" height="40" as="geometry" />
        </mxCell>
        <mxCell id="GS4JMu99pfb2QcCZ1yt9-17" value="" style="ellipse;whiteSpace=wrap;html=1;aspect=fixed;" vertex="1" parent="1">
          <mxGeometry x="700" y="220" width="40" height="40" as="geometry" />
        </mxCell>
        <mxCell id="GS4JMu99pfb2QcCZ1yt9-18" value="" style="ellipse;whiteSpace=wrap;html=1;aspect=fixed;" vertex="1" parent="1">
          <mxGeometry x="700" y="270" width="40" height="40" as="geometry" />
        </mxCell>
        <mxCell id="GS4JMu99pfb2QcCZ1yt9-19" value="Titolo" style="text;html=1;align=center;verticalAlign=middle;whiteSpace=wrap;rounded=0;" vertex="1" parent="1">
          <mxGeometry x="730" y="175" width="60" height="30" as="geometry" />
        </mxCell>
        <mxCell id="GS4JMu99pfb2QcCZ1yt9-20" value="AnnoPubblicazione" style="text;html=1;align=center;verticalAlign=middle;whiteSpace=wrap;rounded=0;" vertex="1" parent="1">
          <mxGeometry x="740" y="225" width="120" height="30" as="geometry" />
        </mxCell>
        <mxCell id="GS4JMu99pfb2QcCZ1yt9-21" value="IsDisponibile" style="text;html=1;align=center;verticalAlign=middle;whiteSpace=wrap;rounded=0;" vertex="1" parent="1">
          <mxGeometry x="730" y="275" width="110" height="30" as="geometry" />
        </mxCell>
        <mxCell id="GS4JMu99pfb2QcCZ1yt9-29" value="" style="ellipse;whiteSpace=wrap;html=1;aspect=fixed;" vertex="1" parent="1">
          <mxGeometry x="450" y="200" width="40" height="40" as="geometry" />
        </mxCell>
        <mxCell id="GS4JMu99pfb2QcCZ1yt9-30" value="" style="ellipse;whiteSpace=wrap;html=1;aspect=fixed;" vertex="1" parent="1">
          <mxGeometry x="450" y="250" width="40" height="40" as="geometry" />
        </mxCell>
        <mxCell id="GS4JMu99pfb2QcCZ1yt9-32" value="DataPrestito" style="text;html=1;align=center;verticalAlign=middle;whiteSpace=wrap;rounded=0;" vertex="1" parent="1">
          <mxGeometry x="480" y="205" width="90" height="30" as="geometry" />
        </mxCell>
        <mxCell id="GS4JMu99pfb2QcCZ1yt9-33" value="DataRitorno" style="text;html=1;align=center;verticalAlign=middle;whiteSpace=wrap;rounded=0;" vertex="1" parent="1">
          <mxGeometry x="490" y="255" width="70" height="30" as="geometry" />
        </mxCell>
        <mxCell id="GS4JMu99pfb2QcCZ1yt9-38" value="" style="endArrow=none;html=1;rounded=0;" edge="1" parent="1">
          <mxGeometry width="50" height="50" relative="1" as="geometry">
            <mxPoint x="430" y="290" as="sourcePoint" />
            <mxPoint x="430" y="250" as="targetPoint" />
          </mxGeometry>
        </mxCell>
        <mxCell id="GS4JMu99pfb2QcCZ1yt9-39" value="" style="endArrow=none;html=1;rounded=0;" edge="1" parent="1">
          <mxGeometry width="50" height="50" relative="1" as="geometry">
            <mxPoint x="580" y="150" as="sourcePoint" />
            <mxPoint x="580" y="90" as="targetPoint" />
          </mxGeometry>
        </mxCell>
      </root>
    </mxGraphModel>
  </diagram>
</mxfile>
